<svg xmlns="http://www.w3.org/2000/svg" viewBox="0 0 1563.64 1219.76"><defs><style>.cls-1{isolation:isolate;}.cls-2{fill:#fec65e;}.cls-3{fill:#fe875e;}.cls-4{fill:#fae0b2;}.cls-5{fill:#466eb6;}.cls-6{fill:#50bfa5;}.cls-7{fill:#13375b;}.cls-8{fill:#355389;}.cls-9{fill:#f7f07f;}.cls-10{fill:#184655;}.cls-11{fill:#e5bd83;}.cls-12{fill:#3c8f7c;}.cls-13{fill:#f47458;}.cls-14{fill:#86b1f2;}.cls-15{fill:#f8c558;}.cls-16{fill:#587cf8;}.cls-17{fill:#d1d1d1;}.cls-18{fill:#9e9e9e;}.cls-19{fill:#f4f4f4;}.cls-20{fill:#fff;}.cls-21{fill:#11442f;}.cls-22{fill:#f7a491;}.cls-23{fill:#efefef;}.cls-24{fill:#a3bf50;}.cls-25{fill:#7a8f3c;}.cls-26{fill:#f8a492;}.cls-27{fill:#b75742;}.cls-28{fill:#3f4411;}.cls-29{fill:#171c51;}.cls-30{opacity:0.4;mix-blend-mode:multiply;}.cls-31{fill:#96d9c9;}.cls-32{fill:#7181aa;}.cls-33{fill:#96a4cd;}</style></defs><g class="cls-1"><g id="Object"><rect class="cls-2" x="567.61" y="1181.46" width="478.5" height="36.75"/><polygon class="cls-3" points="808.08 1131.53 570.04 1181.46 1046.11 1181.46 808.08 1131.53"/><rect class="cls-2" x="759.7" y="1097.25" width="96.75" height="41.84"/><rect class="cls-2" x="759.75" y="1013.5" width="96.75" height="41.84"/><rect class="cls-3" x="779.65" y="1055.41" width="56.86" height="41.84"/><path class="cls-4" d="M1961.54,1842.22h0a17,17,0,0,0-22.42,8.72l-19.52,44.36a17,17,0,0,0,8.72,22.42h0a17,17,0,0,0,22.42-8.72l19.52-44.36A17,17,0,0,0,1961.54,1842.22Z" transform="translate(-1249.6 -905.61)"/><path class="cls-4" d="M2203.11,1293.33h0a17,17,0,0,1-8.72-22.42l19.53-44.36a17,17,0,0,1,22.42-8.71h0a17,17,0,0,1,8.71,22.42l-19.52,44.36A17,17,0,0,1,2203.11,1293.33Z" transform="translate(-1249.6 -905.61)"/><path class="cls-2" d="M2050.1,1925.62a370.74,370.74,0,0,1-149.65-31.7,11.32,11.32,0,1,1,9.12-20.73,349.11,349.11,0,0,0,460.19-178.91c77.55-176.2-2.71-382.64-178.91-460.19a11.32,11.32,0,1,1,9.12-20.73c187.64,82.58,273.1,302.41,190.52,490.05a372.66,372.66,0,0,1-340.39,222.21Z" transform="translate(-1249.6 -905.61)"/><path class="cls-5" d="M1807.57,1730.61c1,18.69,0,51.72,0,51.72l-.07.08a326.34,326.34,0,0,1-100.36-235.82c0-9,.37-17.88,1.1-26.63h.07c0,1.91.45,15.08,12.51,26.63,13,12.44,18.62,17.07,28,22.22s37.31,21.93,37.31,21.93,5.66,1.84,21.48,22.37,30.75,28,34.51,39.21,11.18,21.41,11.18,21.41-28,38.26-33.55,42S1806.69,1712,1807.57,1730.61Z" transform="translate(-1249.6 -905.61)"/><path class="cls-5" d="M2151.69,1829.49c3.6,19.36,12.06,17.3,13.17,16.93v.07a326.5,326.5,0,0,1-130.68,27.15,300.65,300.65,0,0,0,20.24-34.8c9-18.69-1.55-13.1-5.3-50.4s0,0,2.36-5.59,5.07-22.37,0-37.31c-4.64-13.68-.81-11.69-.08-11.25-2.13-1.92-36.2-32.23-47.09-50-4.12-6.84-6.25-10.22-7.21-11.62.44-3.61,1.62-14.72,1.62-22.22s-20.45-3.68-26-3.68-28,5.59-43.12,7.43-24.06,39.14-24.06,28-9.34-7.43-13.1-8.39-9.27-12.14-13-21.41-9.34-5.59-16.78-14.93-13.09-13.1-20.52-33.63-13.1-13-28-42.89,0,0,3.68-14.28,9.34-8.09,22.58-19.27,18.47-3.76,18.47-3.76,13,9.35,20.53,23,31.71,10.6,31.71,10.6l-5.59-16.78c-1.32-3.9-2-6-2.35-7.06l-.3-1c-.22-.66-.59-1.62-1.1-3.23-3.76-11.19-26.12-39.15-7.43-59.67s18.61-13,31.71-33.56,26.12-14.93,41-13.09,11.26,1.91,35.46,0,28-1.84,35.47-28,0,0-3.76-24.28,0-20.46,0-41.2-9.34-1.7-22.36,0-16.78,2.06-24.28,7.65-18.62,20.53-33.55,24.28-9.35,0-29.88-7.58,0-18.54,3.76-35.32,18.1,0,18.1,0a85.86,85.86,0,0,1,17.36-14.93c11.18-7.51,18.62-3.76,37.3-15.16s7.44,5.81,33.55,0,14.94-12.21,14.94-12.21V1264s-18.69,2.2-35.46.29-46.65,3.75-72.7,16-16.85,8.31-24.28,2.94-50.4-2.06-76.3,0a327,327,0,0,1,422.77,29.87c-4.26-3.6-44.29,11-48,22.15s1.91,14.93-11.18,28-13,13.09-42.9,24.28-26.12-5.59-42.89,20.53-20.53,31.63-16.78,44.73-1.91,35.46,24.21,28,16.85-31.71,44.8-22.37a244.88,244.88,0,0,0,53.64,11.19s-9.71-28,0-33.56,27.59,3.68,39.22,13,11.62,7.5,19.05,18.69,14.94,16,20.53,14.49,26.12-31.27,26.12-31.27l12.07-17.8a326.2,326.2,0,0,1,19.42,90.42h-.07c-20.23-13-24-11.11-55.7-11.11s-35.46,7.28-63.42-.07-26.12-13-59.67-11.11-28-4.2-48.49,11-31.71-.37-37.3,34.43-14.94,29.21,0,59.09,14.93,24.2,29.8,54.07,26.12,5.6,20.52,48.49-5.59,50.4-5.59,57.83-3.75,29.87-3.75,39.22S2147.86,1808.67,2151.69,1829.49ZM2149.85,1365v-29.8c-11.19,0,5.59-13.1-11.19,0s-22.36,28-26.12,33.55-12.5,9.34-12.5,9.34Z" transform="translate(-1249.6 -905.61)"/><path class="cls-6" d="M2051.48,1782.85c-2.36,5.59-6.11-31.71-2.36,5.59s14.27,31.71,5.3,50.4a300.65,300.65,0,0,1-20.24,34.8,325.94,325.94,0,0,1-226.68-91.23l.07-.08s1-33,0-51.72,6.55-11.19,12.14-14.86,33.55-42,33.55-42-7.43-10.22-11.18-21.41-18.69-18.69-34.51-39.21-21.48-22.37-21.48-22.37-28-16.78-37.31-21.93-14.93-9.78-28-22.22c-12.06-11.55-12.51-24.72-12.51-26.63h-.07a326.31,326.31,0,0,1,132.14-236.77c25.9-2.06,68.87-5.37,76.3,0s-1.84,9.27,24.28-2.94,55.92-17.81,72.7-16,35.46-.29,35.46-.29v12.14s11.18,6.4-14.94,12.21-14.93-11.4-33.55,0-26.12,7.65-37.3,15.16a85.86,85.86,0,0,0-17.36,14.93s-14.35-16.85-18.1,0-24.28,27.74-3.76,35.32,14.94,11.26,29.88,7.58,26.12-18.69,33.55-24.28,11.18-6,24.28-7.65,22.36-20.75,22.36,0-3.75,17,0,41.2,11.19-1.84,3.76,24.28-11.19,26.12-35.47,28-20.52,1.91-35.46,0-28-7.43-41,13.09-13.1,13-31.71,33.56,3.67,48.48,7.43,59.67c.51,1.61.88,2.57,1.1,3.23l.3,1c.36,1,1,3.16,2.35,7.06l5.59,16.78s-24.28,3.09-31.71-10.6-20.53-23-20.53-23-5.3-7.43-18.47,3.76-18.83,5-22.58,19.27-18.62-15.52-3.68,14.28,20.45,22.44,28,42.89,13,24.28,20.52,33.63,13,5.59,16.78,14.93,9.34,20.53,13,21.41,13.1-2.79,13.1,8.39,8.9-26.12,24.06-28,37.45-7.43,43.12-7.43,26-3.75,26,3.68-1.18,18.61-1.62,22.22c-.51-.74-.73-1-.81-.88,0,.29.59,1.62.59,2a3.35,3.35,0,0,0,.22-1.1c1,1.4,3.09,4.78,7.21,11.62,10.89,17.81,45,48.12,47.09,50-.73-.44-4.56-2.43.08,11.25C2056.55,1760.48,2053.9,1777.26,2051.48,1782.85Z" transform="translate(-1249.6 -905.61)"/><path class="cls-6" d="M2164.86,1846.42c-1.11.37-9.57,2.43-13.17-16.93-3.83-20.82-14.94-14.93-14.94-24.2s3.75-31.71,3.75-39.22,0-14.93,5.59-57.83-5.59-18.61-20.52-48.49-14.87-24.28-29.8-54.07-5.59-24.28,0-59.09,16.77-19.27,37.3-34.43,14.94-9.12,48.49-11,31.71,3.75,59.67,11.11,31.71.07,63.42.07,35.47-1.84,55.7,11.11h.07c.52,7.65.81,15.3.81,23.1,0,134.21-80.78,249.5-196.37,299.9Z" transform="translate(-1249.6 -905.61)"/><path class="cls-6" d="M2138.66,1335.21c16.78-13.1,0,0,11.19,0V1365L2100,1378.1s8.75-3.75,12.5-9.34S2121.89,1348.23,2138.66,1335.21Z" transform="translate(-1249.6 -905.61)"/><path class="cls-6" d="M2341,1433v.08l-12.07,17.8s-20.53,29.8-26.12,31.27-13.09-3.31-20.53-14.49-7.43-9.35-19.05-18.69-29.43-18.62-39.22-13,0,33.56,0,33.56a244.88,244.88,0,0,1-53.64-11.19c-27.95-9.34-18.68,14.94-44.8,22.37s-20.46-14.94-24.21-28,0-18.69,16.78-44.73,13-9.35,42.89-20.53,29.87-11.19,42.9-24.28,7.5-16.78,11.18-28,43.78-25.75,48-22.15a.08.08,0,0,0,.08.08A328.06,328.06,0,0,1,2341,1433Z" transform="translate(-1249.6 -905.61)"/><path class="cls-7" d="M2597.37,1252.34c-169.83,23.28-311.29-32.41-311.29-32.41s90.25-11.07,157.75-4C2503.66,1222.12,2597.37,1252.34,2597.37,1252.34Z" transform="translate(-1249.6 -905.61)"/><path class="cls-8" d="M2607.48,1155.23l-10.11,97.11s-93.71-30.22-153.54-36.45c-67.5-7-157.75,4-157.75,4l10.12-97.12,10.11-97.11s80.57-37.12,160.33-28.81c74,7.7,151,61.22,151,61.22Z" transform="translate(-1249.6 -905.61)"/><path class="cls-7" d="M2775.77,1100.24l-165.7,55.26-2.59-.27,10.11-97.12s-77-53.52-151-61.22c-79.76-8.31-160.33,28.81-160.33,28.81l-10.11,97.11-2.55-.26-150.76-88.21,330.68-104Z" transform="translate(-1249.6 -905.61)"/><path class="cls-8" d="M2463.63,907.06,2145.53,1009l-2.64,25.38L2461,934.26a30.59,30.59,0,0,1,24.16,2.52l290.66,163.46,2.64-25.38L2488.09,909.61A30.61,30.61,0,0,0,2463.63,907.06Z" transform="translate(-1249.6 -905.61)"/><path class="cls-2" d="M2205.29,1184.21s-12.06,22.15-10.08,40.56,9.45,35.44,9.45,35.44l4.37.45-2.29-20.39,6.12,27.3,7.26-1.85-4.29-39.13,7.62,33s7.47-3.13,7.74-5.7-6.45-32.53-6.45-32.53l9.48,35.45s4.8,3.1,8.48-32.28-26.32-47-26.32-47Z" transform="translate(-1249.6 -905.61)"/><path class="cls-2" d="M2340.27,946.58l-22.87,7.34a121.93,121.93,0,0,0-14-2.22c-24.13-2.52-60.25.45-83.49,33.42q-2.44,3.5-4.7,7.4a122.32,122.32,0,0,0-10,22.19c-12.12,36.25-4.23,71.3,4.06,108,4.49,20,9.14,40.69,10.38,61.71a7.6,7.6,0,0,1-7.19,8.06,6.62,6.62,0,0,1-1.26,0,7.63,7.63,0,0,1-6.84-7.13c-1.17-19.78-5.66-39.83-10-59.25-7.71-34.23-15.63-69.36-6.63-105.93a132,132,0,0,1,10.39-28.08c1.17-2.41,2.46-4.78,3.82-7.18,41.49-72.57,130.53-42.91,131.45-42.59A24.12,24.12,0,0,1,2340.27,946.58Z" transform="translate(-1249.6 -905.61)"/><circle class="cls-9" cx="963.32" cy="275.29" r="15.95"/><path class="cls-4" d="M2182,1940.69h529.86s-9.25,38.35-9.25,80c0,40.49,9.25,80,9.25,80H2182a34,34,0,0,1-34-34v-92A34,34,0,0,1,2182,1940.69Z" transform="translate(-1249.6 -905.61)"/><path class="cls-10" d="M2719,1918.92a10.89,10.89,0,0,1,10.88,10.88,10.89,10.89,0,0,1-10.88,10.89H2182a34,34,0,0,0-34,34.07v92a34,34,0,0,0,34,34h537a10.89,10.89,0,0,1,0,21.77H2182a55.79,55.79,0,0,1-55.8-55.8v-92a55.8,55.8,0,0,1,55.8-55.8Z" transform="translate(-1249.6 -905.61)"/><path class="cls-11" d="M2217,1971.67q47.07-2.1,94.13-2.82c31.38-.58,62.76-.73,94.13-.8s62.75.21,94.13.79,62.75,1.42,94.13,2.83q-47.07,2.11-94.13,2.83c-31.38.58-62.75.73-94.13.8s-62.75-.23-94.13-.81S2248.34,1973.07,2217,1971.67Z" transform="translate(-1249.6 -905.61)"/><path class="cls-11" d="M2197.34,2020.73c11.86-1.5,23.71-2.29,35.57-2.82s23.71-.73,35.56-.81c11.86.07,23.72.22,35.57.8s23.71,1.32,35.57,2.83c-11.86,1.51-23.71,2.3-35.57,2.83s-23.71.73-35.57.79-23.71-.22-35.56-.8S2209.2,2022.23,2197.34,2020.73Z" transform="translate(-1249.6 -905.61)"/><path class="cls-11" d="M2288.1,2071c11.85-1.5,23.71-2.28,35.56-2.82s23.72-.73,35.57-.8,23.71.21,35.57.79,23.71,1.32,35.56,2.83c-11.85,1.51-23.71,2.3-35.56,2.83s-23.71.74-35.57.8-23.71-.23-35.57-.81S2300,2072.51,2288.1,2071Z" transform="translate(-1249.6 -905.61)"/><path class="cls-11" d="M2363,2041.58q41.1-2.1,82.19-2.82c27.4-.58,54.8-.74,82.19-.81s54.8.22,82.19.8,54.8,1.42,82.19,2.83q-41.09,2.12-82.19,2.83c-27.39.58-54.79.73-82.19.79s-54.79-.22-82.19-.8S2390.35,2043,2363,2041.58Z" transform="translate(-1249.6 -905.61)"/><path class="cls-6" d="M2307.72,2117.62a103.56,103.56,0,0,1,0-96.89H2217a103.56,103.56,0,0,0,0,96.89c10.76-8.25,22.71-16.94,35.85-25.83C2269.92,2100.68,2288.23,2109.37,2307.72,2117.62Z" transform="translate(-1249.6 -905.61)"/><path class="cls-4" d="M2329,1723s15.63,36.32-.59,80.91l-61.57-3.37-154.41-8.42v0a166.33,166.33,0,0,0,4.68-38.2c0-18.94-4.68-38.24-4.68-38.24v0l152.2,5.19Z" transform="translate(-1249.6 -905.61)"/><path class="cls-12" d="M2109.21,1791.93l3.23.18,154.41,8.42,61.57,3.37c16.22-44.59.59-80.91.59-80.91l-64.37-2.21-152.2-5.19-3.67-.11a9.05,9.05,0,0,1,.26-18.1h.4l228.61,8.45s30.19,50.14,0,115.05l-229.7-10.81a9.08,9.08,0,0,1,.47-18.14Z" transform="translate(-1249.6 -905.61)"/><polygon class="cls-12" points="859.83 791.77 1486.31 783.86 1482.86 784.01 1088.44 800.22 859.83 791.77"/><path class="cls-10" d="M2345.68,1705.52l386.78-15.91a34.13,34.13,0,0,1,35.45,33.93l.25,48.18a34.07,34.07,0,0,1-32.8,34.28L2338,1820.88c30.19-64.91,0-115.05,0-115.05Z" transform="translate(-1249.6 -905.61)"/><path class="cls-11" d="M2327.86,1754.11c-11.94.84-23.84,1-35.72.84s-23.76-.59-35.62-1.17-23.69-1.54-35.52-2.77-23.63-2.64-35.41-4.8c11.94-.85,23.84-1,35.73-.86s23.75.59,35.61,1.19,23.7,1.54,35.52,2.77S2316.09,1752,2327.86,1754.11Z" transform="translate(-1249.6 -905.61)"/><path class="cls-11" d="M2201.7,1773.13a312.65,312.65,0,0,1-39.45-.45,307,307,0,0,1-39.14-4.87,351.3,351.3,0,0,1,78.59,5.32Z" transform="translate(-1249.6 -905.61)"/><path class="cls-13" d="M2222.87,1825.17c-12-17.75-10.83-59.93,2.24-77,23.69.69,46.52,3.61,70.21,4.3-13.07,17-13.41,57-1.35,74.73a262.59,262.59,0,0,1-42.37-19.75C2241.22,1814.47,2231.82,1820.59,2222.87,1825.17Z" transform="translate(-1249.6 -905.61)"/><path class="cls-8" d="M2371.42,1816.23l11.19,1a50.53,50.53,0,0,0-46.75,54.08l1.12,15.44a50.51,50.51,0,0,0,40.74,45.9l-180-14.17a54.32,54.32,0,0,1-48.85-59.6l.84-8.3a54.26,54.26,0,0,1,58.76-48.6h0Z" transform="translate(-1249.6 -905.61)"/><polygon class="cls-8" points="1555.13 901.39 1133.02 911.62 1121.82 910.63 958.92 896.37 958.88 896.37 956.93 896.2 1555.13 901.39"/><path class="cls-14" d="M2792.62,1824l-409.07,11.33a32.29,32.29,0,0,0-23.23,12.87,34,34,0,0,0-6.28,23l1.06,14.24a32.63,32.63,0,0,0,31.79,30.07c.94,0,1.92,0,2.87-.1l.43,0,403.1-9.75,10-.25a8.35,8.35,0,0,1,8.51,8.47l0,1.48a8.32,8.32,0,0,1-8.1,8.2l-412.61,10a49.48,49.48,0,0,1-13.37-.82,50.51,50.51,0,0,1-40.74-45.9l-1.12-15.44a50.53,50.53,0,0,1,46.75-54.08L2804.73,1807a8.33,8.33,0,0,1,.45,16.66Z" transform="translate(-1249.6 -905.61)"/><path class="cls-4" d="M2793.29,1905.6l-403.1,9.75-.43,0c-1,0-1.93.11-2.87.1a32.63,32.63,0,0,1-31.79-30.07l-1.06-14.24a34,34,0,0,1,6.28-23,32.29,32.29,0,0,1,23.23-12.87L2792.62,1824c-.16.73-5.3,25.07-5.53,40.71S2793.29,1905.6,2793.29,1905.6Z" transform="translate(-1249.6 -905.61)"/><path class="cls-11" d="M2389.47,1859c11.8-2,23.63-3.26,35.47-4.28s23.7-1.71,35.56-2.27,23.74-.75,35.62-.66,23.79.34,35.71,1.36c-11.8,2-23.63,3.28-35.47,4.29s-23.7,1.71-35.56,2.26-23.74.75-35.63.65S2401.39,1860,2389.47,1859Z" transform="translate(-1249.6 -905.61)"/><path class="cls-11" d="M2487.1,1892c11.8-2,23.63-3.26,35.47-4.28s23.7-1.71,35.56-2.27,23.74-.75,35.63-.66,23.78.34,35.7,1.37c-11.8,2-23.63,3.27-35.47,4.29s-23.7,1.7-35.56,2.25-23.74.75-35.62.66S2499,1893,2487.1,1892Z" transform="translate(-1249.6 -905.61)"/><path class="cls-6" d="M2503.28,1953.57c16.36-22,17.33-76.29,1.62-98.72-30.25-.44-57.12,2.8-87.37,2.36,15.72,22.43,11.37,73.07-5,95a334.88,334.88,0,0,0,55.1-22.83C2480.48,1938.9,2492.13,1947.23,2503.28,1953.57Z" transform="translate(-1249.6 -905.61)"/><path class="cls-11" d="M2591.6,1870.63c16.25-2,32.51-3.27,48.79-4.3s32.56-1.72,48.85-2.28,32.59-.77,48.9-.68,32.62.33,49,1.35c-16.25,2-32.52,3.28-48.79,4.31s-32.56,1.71-48.85,2.27-32.59.75-48.9.67S2607.94,1871.63,2591.6,1870.63Z" transform="translate(-1249.6 -905.61)"/><path class="cls-7" d="M2180.94,1071c-21.29,8.52-32.68,44.11-34.23,89.75s-27.48,105.57,1,121,76.25-21.51,113.11,10.94,90.57,35.43,90.57,35.43,33.51-26.56,20.33-102.49-63.37-49.44-85.8-80.87S2252.87,1042.25,2180.94,1071Z" transform="translate(-1249.6 -905.61)"/><path class="cls-13" d="M2193.08,1217.3s74.41-15.6,72,8.74c-1,10.37-33.2,56.92-33.94,60.79-.49,2.82-1.15,5.71-1.73,8.56s-1.22,5.7-2,8.59-1.39,5.75-2.19,8.64l-2.52,8.73c-.4,1.44-.88,2.92-1.4,4.4l-1.51,4.43-1.52,4.42-1.78,4.54-1.83,4.51c-.31.75-.6,1.48-.94,2.25l-1.09,2.34-2.22,4.65-1.11,2.32-.56,1.15-1,1.75c-1.35,2.39-2.7,4.81-4.25,7s-3.26,4.37-5,6.45-3.63,3.82-5.51,5.64-3.83,3.26-5.8,4.8a84.29,84.29,0,0,1-23.42,12.1c-1.86.58-3.8,1.29-5.6,1.72l-5.46,1.36c-3.53.71-7.09,1.35-10.48,1.73a139.44,139.44,0,0,1-19.71,1c-12.66-.14-14.25-59.21-5.82-61.35a97.22,97.22,0,0,0,11.7-3.7c.85-.36,1.79-.66,2.55-1.06s1.58-.75,2.37-1.1l2.08-1.14a21,21,0,0,0,1.81-1.16c2.21-1.55,3.37-6.82,3.37-6.82l.76-2.71.39-1.35c.12-.47.22-1,.33-1.51l.67-3,.71-3,.6-3.25c.38-2.19.84-4.23,1.18-6.52.77-4.47,2.32-20,4.25-40.54,2.07-22,18.07-38.93,43.46-44.46Z" transform="translate(-1249.6 -905.61)"/><path class="cls-15" d="M2334,1394.17c1.27-16.6,11.53-48.88,12.39-74.53,1.79-53.41.45-104.92-85.26-105.38a1.76,1.76,0,0,0-.33-.07c-5.68-1-9.86-1.38-11.84-1.55l-1.27-.1c-40-1.14-68.77,3-72.23,32.13-2.12,17.75-16.75,25.51-19.43,44.62-3.48,24.85,3.55,29,9.92,49.69,5,16.38-39.29,127.13-39.29,127.13l212.94,4.1S2331,1433.71,2334,1394.17Z" transform="translate(-1249.6 -905.61)"/><path class="cls-16" d="M2249,1212.64c2,.17,6.16.59,11.84,1.55A101.87,101.87,0,0,0,2249,1212.64Z" transform="translate(-1249.6 -905.61)"/><path class="cls-4" d="M2259,1166.07l-55.24,9.5,7.33,20.92,0,.07,2,5.77,1.92,5.54.41,1.15,6.65.75-4.39,4.27s2.15,8.66,19.54,8.66,23.58-8.5,23.58-8.5Z" transform="translate(-1249.6 -905.61)"/><path class="cls-4" d="M2260.73,1149.17c1.22,25.95-13.06,47.38-38,54.8-19.06,5.69-33.78-2.29-56-50.4-10.91-23.58,18.83-48,44.78-49.19A47,47,0,0,1,2260.73,1149.17Z" transform="translate(-1249.6 -905.61)"/><path class="cls-3" d="M2219.57,1217.11a6.91,6.91,0,0,1-1.89-3.07c-.72-2.23-3.91-8.54-3.91-8.54s29.83-3.51,36.78-23.44C2250.55,1182.06,2255.85,1206.61,2219.57,1217.11Z" transform="translate(-1249.6 -905.61)"/><path class="cls-13" d="M2301.43,1223.46c62.9-.76,43.19,149.34-3.12,169.29-57.07,24.58-91.49,16.23-91.49,16.23l-.44-34.35c.33-.15,67.64-10.78,69.26-32.08,3.56-46.64-31-115.1,25.79-119.09Z" transform="translate(-1249.6 -905.61)"/><path class="cls-17" d="M2137.74,1423l83.47-.06a7,7,0,0,0-4.51,1.58,4.9,4.9,0,0,0-1.87,3.78c0,3,2.88,5.37,6.39,5.37l-171.65.11c-3.51,0-6.39-2.41-6.39-5.37a5,5,0,0,1,1.87-3.78,7,7,0,0,1,4.51-1.58Z" transform="translate(-1249.6 -905.61)"/><path class="cls-18" d="M2314.78,1422.92a5.36,5.36,0,1,1,0,10.72l-94.66.07a5.39,5.39,0,0,1-5.37-5.37,5.3,5.3,0,0,1,1.57-3.78,5.37,5.37,0,0,1,3.8-1.58l92.66-.06Z" transform="translate(-1249.6 -905.61)"/><path class="cls-17" d="M2225.79,1420.17a7.6,7.6,0,0,1-5.87,2.81h-6.77a7.57,7.57,0,0,0,7.39-9.14l-22.49-107.16a7.65,7.65,0,0,0-7.43-6h6.76a7.64,7.64,0,0,1,7.44,6l22.49,107.16A7.49,7.49,0,0,1,2225.79,1420.17Z" transform="translate(-1249.6 -905.61)"/><path class="cls-19" d="M2219,1420.17a7.53,7.53,0,0,1-5.87,2.81l-162.89.11a7.64,7.64,0,0,1-7.44-6l-22.49-107.16a7.6,7.6,0,0,1,7.41-9.14l162.88-.11a7.65,7.65,0,0,1,7.43,6l22.49,107.16A7.49,7.49,0,0,1,2219,1420.17Z" transform="translate(-1249.6 -905.61)"/><circle class="cls-20" cx="2120.44" cy="1361.88" r="8.83" transform="translate(-1643.95 620.02) rotate(-36.44)"/><path class="cls-7" d="M2261.5,1138.11s-58.61,19.5-90.06-11.94c0,0,20,22.71,33.82,20.29,0,0-19.61,6.08-33.82-16.23,0,0-3.94,20.52-14.14,24.71,0,0-9.32-57.16,39.93-64.26S2259.11,1115.56,2261.5,1138.11Z" transform="translate(-1249.6 -905.61)"/><path class="cls-4" d="M1919.31,1616.63s-14.46,15.62-20.16,12.47l59.17,38.93,12.62-17.43Z" transform="translate(-1249.6 -905.61)"/><path class="cls-21" d="M1878.18,1621.82l16.62,5.77a14.4,14.4,0,0,0,10.66-.49l7.93-4.76,16.5,26.64,35.55,9.21-3.5,4.84-18.71-5.27,15.45,10.16a5.6,5.6,0,0,1,1.6,7.75l-4.68,7.11a6,6,0,0,1-8.25,1.7l-17.69-11.63v-9.41l-12.69,1-55.61-36.58a1.94,1.94,0,0,1-.15-3.13h0A17.75,17.75,0,0,1,1878.18,1621.82Z" transform="translate(-1249.6 -905.61)"/><path class="cls-4" d="M2037.52,1713.34s-3.5,21-10,21.5h70.83l.95-21.5Z" transform="translate(-1249.6 -905.61)"/><path class="cls-21" d="M2006,1740.28l17.06-4.32a14.35,14.35,0,0,0,8.64-6.26l4-8.34,28.42,13.19,34.77-11.85-.27,6-18.52,5.88h18.49a5.6,5.6,0,0,1,5.59,5.6v8.51a6,6,0,0,1-6,6h-21.17l-5.18-7.86-10,7.86h-66.56a1.94,1.94,0,0,1-1.84-2.53h0A17.74,17.74,0,0,1,2006,1740.28Z" transform="translate(-1249.6 -905.61)"/><path class="cls-21" d="M2067.11,1551l-34.49,162.38h70l56.69-171.59s-20.33-9.27-49-21.44S2074.4,1532.93,2067.11,1551Z" transform="translate(-1249.6 -905.61)"/><path class="cls-10" d="M2338.17,1507.44h0c-8.36,48.3-32.44,60.11-96.19,52.74-79.92-9.24-124.27-37-124.27-37l-138.76,128-59.34-42s35.86-45.62,82.74-102c49.6-59.63,60.21-92.9,153.75-70.49,57.73,13.84,102.13,14.63,143.94,24.17h0c24.12,5.5,39.56,9.34,39.56,9.34A142.42,142.42,0,0,1,2338.17,1507.44Z" transform="translate(-1249.6 -905.61)"/><path class="cls-21" d="M2338.17,1507.44h0c-49.49,3.15-38.13-46.57-38.13-46.57h0c24.12,5.5,39.56,9.34,39.56,9.34A142.42,142.42,0,0,1,2338.17,1507.44Z" transform="translate(-1249.6 -905.61)"/><path class="cls-21" d="M1924.23,1602.66l61.46,44.23a6.52,6.52,0,0,1,1.48,9.06h0a6.51,6.51,0,0,1-9.06,1.48l-61.46-44.23a6.51,6.51,0,0,1-1.48-9.06h0A6.51,6.51,0,0,1,1924.23,1602.66Z" transform="translate(-1249.6 -905.61)"/><rect class="cls-21" x="2024.43" y="1700.36" width="88.7" height="12.98" rx="6.49" transform="translate(2887.96 2508.1) rotate(180)"/><rect class="cls-3" x="868.03" y="640.85" width="680.67" height="158.21"/><rect class="cls-22" x="935.17" y="640.85" width="40.28" height="158.21"/><rect class="cls-22" x="2690.86" y="1546.45" width="40.28" height="158.21" transform="translate(4172.41 2345.51) rotate(180)"/><path class="cls-23" d="M2117.62,1612.68s-51.51,24.83-59.79,92l22.08-18.39,7.82,18.39s5.06-57,29.89-79.1Z" transform="translate(-1249.6 -905.61)"/><path class="cls-24" d="M1345.13,1621.5h-34.28a47.38,47.38,0,0,1-38.13,46.47,46.14,46.14,0,0,1-9.25.91l-1.44-.05-11.67,384.92-.25,7.92h93.48l.94-7.9,33.4-280.66,18-151.61Z" transform="translate(-1249.6 -905.61)"/><path class="cls-25" d="M1396,1621.5h34.28c0,22,13.86,40.45,38.43,45.81a71.27,71.27,0,0,0,15.19,1.57l50.75,384.87,1,7.92h-95.27l-1.72-7.92-60.76-280.64Z" transform="translate(-1249.6 -905.61)"/><path class="cls-26" d="M1374.37,2099.12s-12.61,6.14-8.38,19.24h27.8a16.74,16.74,0,0,0-8.13-12.47C1381.24,2103.27,1377.6,2101.1,1374.37,2099.12Z" transform="translate(-1249.6 -905.61)"/><path class="cls-26" d="M1250.11,2081.09v19.61c25.49-.31,22.69-22.92,22.69-22.92-10.2-.66-16.29-1.52-17.37-1.69l-.18,0h-.11A5,5,0,0,0,1250.11,2081.09Z" transform="translate(-1249.6 -905.61)"/><path class="cls-13" d="M1344.44,2080.31l-6.74-4.25s-2.44.33-6.77.77c-7.18.72-19.6,1.66-34.59,1.66-1.27,0-2.51,0-3.71,0-7.71-.06-14.36-.33-19.83-.68,0,0,2.8,22.61-22.69,22.92v17.66H1366c-4.23-13.1,8.38-19.24,8.38-19.24-6.76-4.1-11.77-7.27-18.59-11.6C1352.54,2085.45,1348.89,2083.12,1344.44,2080.31Z" transform="translate(-1249.6 -905.61)"/><path class="cls-27" d="M1250.11,2118.36v.64a6.37,6.37,0,0,0,6.36,6.37h132.45a5,5,0,0,0,5-5,16.36,16.36,0,0,0-.12-2H1250.11Z" transform="translate(-1249.6 -905.61)"/><path class="cls-4" d="M1255.25,2061.67v14.39a.84.84,0,0,1,.18,0c2,.21,19.68,2.13,37.2,2.37,1.2,0,2.44,0,3.71,0,15,0,27.41-.94,34.59-1.66,4.17-.44,6.49-.77,6.49-.77v-14.39h-82.17Z" transform="translate(-1249.6 -905.61)"/><path class="cls-26" d="M1333.06,2092.74a.77.77,0,0,1-.53-.21.76.76,0,0,1,0-1.08l11.38-11.67a.76.76,0,0,1,1.09,1.06l-11.39,11.67A.72.72,0,0,1,1333.06,2092.74Z" transform="translate(-1249.6 -905.61)"/><path class="cls-26" d="M1338.74,2096.62a.74.74,0,0,1-.53-.22.76.76,0,0,1,0-1.07l11.4-11.67a.76.76,0,1,1,1.08,1.06l-11.39,11.67A.78.78,0,0,1,1338.74,2096.62Z" transform="translate(-1249.6 -905.61)"/><path class="cls-26" d="M1344.44,2099.88a.77.77,0,0,1-.53-.21.76.76,0,0,1,0-1.08l11.33-11.6a.75.75,0,0,1,1.06-.15.77.77,0,0,1,.14,1.07l0,.06-11.4,11.69A.73.73,0,0,1,1344.44,2099.88Z" transform="translate(-1249.6 -905.61)"/><path class="cls-26" d="M1566.65,2099.12s-12.61,6.14-8.39,19.24h27.81a16.77,16.77,0,0,0-8.13-12.47C1573.51,2103.27,1569.87,2101.1,1566.65,2099.12Z" transform="translate(-1249.6 -905.61)"/><path class="cls-26" d="M1442.39,2081.09v19.61c25.48-.31,22.68-22.92,22.68-22.92-10.19-.66-16.29-1.52-17.36-1.69l-.19,0h-.1A5,5,0,0,0,1442.39,2081.09Z" transform="translate(-1249.6 -905.61)"/><path class="cls-13" d="M1536.71,2080.31l-6.74-4.25s-2.43.33-6.76.77c-7.19.72-19.6,1.66-34.6,1.66-1.26,0-2.51,0-3.71,0-7.7-.06-14.36-.33-19.83-.68,0,0,2.8,22.61-22.68,22.92v17.66h115.87c-4.22-13.1,8.39-19.24,8.39-19.24-6.76-4.1-11.78-7.27-18.6-11.6C1544.81,2085.45,1541.17,2083.12,1536.71,2080.31Z" transform="translate(-1249.6 -905.61)"/><path class="cls-27" d="M1442.39,2118.36v.64a6.36,6.36,0,0,0,6.35,6.37h132.45a5,5,0,0,0,3.54-1.48,5.06,5.06,0,0,0,1.46-3.54,18.65,18.65,0,0,0-.12-2H1442.39Z" transform="translate(-1249.6 -905.61)"/><path class="cls-4" d="M1447.52,2061.67v14.39l.19,0c2,.21,19.67,2.13,37.19,2.37,1.2,0,2.45,0,3.71,0,15,0,27.41-.94,34.6-1.66,4.16-.44,6.48-.77,6.48-.77v-14.39h-82.17Z" transform="translate(-1249.6 -905.61)"/><path class="cls-26" d="M1525.33,2092.74a.75.75,0,0,1-.54-1.29l11.38-11.67a.76.76,0,0,1,1.09,1.06l-11.38,11.67A.74.74,0,0,1,1525.33,2092.74Z" transform="translate(-1249.6 -905.61)"/><path class="cls-26" d="M1531,2096.62a.75.75,0,0,1-.54-.22.76.76,0,0,1,0-1.07l11.4-11.67a.76.76,0,1,1,1.08,1.06l-11.39,11.67A.78.78,0,0,1,1531,2096.62Z" transform="translate(-1249.6 -905.61)"/><path class="cls-26" d="M1536.71,2099.88a.75.75,0,0,1-.54-1.29l11.34-11.6a.74.74,0,0,1,1-.15.76.76,0,0,1,.14,1.07l0,.06-11.39,11.69A.77.77,0,0,1,1536.71,2099.88Z" transform="translate(-1249.6 -905.61)"/><polygon class="cls-28" points="146.38 715.9 140.56 923.96 128.33 867.51 146.38 715.9"/><path class="cls-28" d="M1263.47,1621.5l-1.44,47.33,1.44.05a46.14,46.14,0,0,0,9.25-.91,47.38,47.38,0,0,0,38.13-46.47Z" transform="translate(-1249.6 -905.61)"/><path class="cls-28" d="M1477.64,1621.5h-47.38c0,22,13.86,40.45,38.43,45.81a71.27,71.27,0,0,0,15.19,1.57Z" transform="translate(-1249.6 -905.61)"/><path class="cls-29" d="M1262,1669.59a62.71,62.71,0,0,0,10.85-.88,48.21,48.21,0,0,0,38.73-47.21.76.76,0,0,0-1.52,0,46.69,46.69,0,0,1-37.51,45.72,61.42,61.42,0,0,1-10.55.85.76.76,0,0,0,0,1.52Z" transform="translate(-1249.6 -905.61)"/><path class="cls-29" d="M1469,1670.33h.11a.75.75,0,0,0,.64-.86l-.32-2.25a.76.76,0,0,0-1.51.21l.33,2.26A.75.75,0,0,0,1469,1670.33Z" transform="translate(-1249.6 -905.61)"/><path class="cls-29" d="M1524,2055l-.65-4.48a.76.76,0,0,1,.64-.86.77.77,0,0,1,.87.64l.64,4.48a.77.77,0,0,1-.64.87h-.11A.75.75,0,0,1,1524,2055Zm-1.3-9-.64-4.48a.75.75,0,0,1,.64-.86.77.77,0,0,1,.86.64l.65,4.48a.76.76,0,0,1-.65.86h-.11A.76.76,0,0,1,1522.72,2046.08Zm-1.29-9-.65-4.48a.76.76,0,1,1,1.5-.22l.65,4.48a.76.76,0,0,1-.64.86h-.11A.75.75,0,0,1,1521.43,2037.12Zm-1.3-9-.65-4.49a.76.76,0,0,1,.65-.86.78.78,0,0,1,.86.65l.64,4.48a.76.76,0,0,1-.64.86h-.11A.76.76,0,0,1,1520.13,2028.16Zm-1.3-9-.64-4.48a.76.76,0,0,1,.64-.86.77.77,0,0,1,.86.65l.65,4.48a.76.76,0,0,1-.65.86h-.11A.77.77,0,0,1,1518.83,2019.19Zm-1.29-9-.65-4.48a.76.76,0,0,1,1.5-.22l.65,4.48a.77.77,0,0,1-.64.87h-.11A.75.75,0,0,1,1517.54,2010.23Zm-1.3-9-.65-4.48a.76.76,0,0,1,.64-.86.77.77,0,0,1,.87.64l.64,4.48a.75.75,0,0,1-.64.86H1517A.75.75,0,0,1,1516.24,2001.27Zm-1.3-9-.64-4.48a.76.76,0,0,1,1.5-.22l.65,4.48a.76.76,0,0,1-.65.86h-.11A.76.76,0,0,1,1514.94,1992.31Zm-1.29-9-.65-4.49a.76.76,0,1,1,1.5-.21l.65,4.48a.76.76,0,0,1-.64.86h-.11A.76.76,0,0,1,1513.65,1983.35Zm-1.3-9-.65-4.48a.76.76,0,1,1,1.51-.21l.64,4.48a.76.76,0,0,1-.64.86h-.11A.75.75,0,0,1,1512.35,1974.38Zm-1.3-9-.64-4.48a.76.76,0,1,1,1.5-.22l.65,4.48a.77.77,0,0,1-.65.87h-.11A.76.76,0,0,1,1511.05,1965.42Zm-1.29-9-.65-4.48a.76.76,0,0,1,1.5-.22l.65,4.48a.76.76,0,0,1-.64.86h-.11A.75.75,0,0,1,1509.76,1956.46Zm-1.3-9-.65-4.48a.76.76,0,0,1,.64-.86.73.73,0,0,1,.86.64l.65,4.48a.75.75,0,0,1-.64.86h-.11A.75.75,0,0,1,1508.46,1947.5Zm-1.3-9-.65-4.48a.76.76,0,0,1,.65-.86.74.74,0,0,1,.86.64l.65,4.48a.76.76,0,0,1-.65.86h-.11A.76.76,0,0,1,1507.16,1938.54Zm-1.29-9-.65-4.48a.76.76,0,0,1,.64-.86.75.75,0,0,1,.86.65l.65,4.48a.76.76,0,0,1-.64.86h-.11A.76.76,0,0,1,1505.87,1929.57Zm-1.3-9-.65-4.48a.76.76,0,0,1,.64-.86.75.75,0,0,1,.86.64l.65,4.49a.76.76,0,0,1-.64.86h-.11A.75.75,0,0,1,1504.57,1920.61Zm-1.3-9-.65-4.48a.76.76,0,0,1,1.51-.22l.65,4.48a.76.76,0,0,1-.65.86H1504A.76.76,0,0,1,1503.27,1911.65Zm-1.29-9-.65-4.48a.76.76,0,0,1,1.5-.22l.65,4.48a.76.76,0,0,1-.64.86h-.11A.75.75,0,0,1,1502,1902.69Zm-1.3-9-.65-4.48a.76.76,0,0,1,.64-.86.74.74,0,0,1,.86.64l.65,4.48a.76.76,0,0,1-.64.86h-.11A.75.75,0,0,1,1500.68,1893.73Zm-1.3-9-.65-4.49a.76.76,0,0,1,.65-.86.75.75,0,0,1,.86.65l.65,4.48a.76.76,0,0,1-.65.86h-.11A.77.77,0,0,1,1499.38,1884.77Zm-1.29-9-.65-4.48a.76.76,0,0,1,.64-.86.75.75,0,0,1,.86.64l.65,4.49a.76.76,0,0,1-.64.86h-.11A.75.75,0,0,1,1498.09,1875.8Zm-1.3-9-.65-4.48a.76.76,0,1,1,1.5-.22l.65,4.48a.76.76,0,0,1-.64.86h-.11A.75.75,0,0,1,1496.79,1866.84Zm-1.3-9-.65-4.48a.76.76,0,0,1,.65-.86.74.74,0,0,1,.86.64l.65,4.48a.76.76,0,0,1-.65.86h-.11A.76.76,0,0,1,1495.49,1857.88Zm-1.29-9-.65-4.48a.76.76,0,0,1,.64-.86.74.74,0,0,1,.86.64l.65,4.48a.76.76,0,0,1-.64.86H1495A.75.75,0,0,1,1494.2,1848.92Zm-1.3-9-.65-4.49a.76.76,0,1,1,1.5-.21l.65,4.48a.76.76,0,0,1-.64.86h-.11A.76.76,0,0,1,1492.9,1840Zm-1.3-9-.65-4.48a.76.76,0,0,1,1.51-.21l.65,4.48a.76.76,0,0,1-.65.86h-.11A.76.76,0,0,1,1491.6,1831Zm-1.29-9-.65-4.48a.76.76,0,0,1,1.5-.22l.65,4.48a.76.76,0,0,1-.64.86h-.11A.75.75,0,0,1,1490.31,1822Zm-1.3-9-.65-4.48a.76.76,0,0,1,.64-.86.75.75,0,0,1,.86.64l.65,4.48a.76.76,0,0,1-.64.86h-.11A.75.75,0,0,1,1489,1813.07Zm-1.3-9-.65-4.48a.76.76,0,0,1,.65-.86.75.75,0,0,1,.86.64l.65,4.48a.76.76,0,0,1-.65.86h-.11A.76.76,0,0,1,1487.71,1804.11Zm-1.29-9-.65-4.48a.76.76,0,1,1,1.5-.22l.65,4.48a.76.76,0,0,1-.64.86h-.11A.76.76,0,0,1,1486.42,1795.15Zm-1.3-9-.65-4.48a.76.76,0,0,1,.64-.86.75.75,0,0,1,.86.64l.65,4.49a.76.76,0,0,1-.64.86h-.11A.75.75,0,0,1,1485.12,1786.18Zm-1.3-9-.65-4.48a.76.76,0,0,1,1.51-.22l.64,4.48a.77.77,0,0,1-.64.87h-.11A.76.76,0,0,1,1483.82,1777.22Zm-1.3-9-.64-4.48a.76.76,0,0,1,1.5-.22l.65,4.48a.76.76,0,0,1-.64.86h-.11A.76.76,0,0,1,1482.52,1768.26Zm-1.29-9-.65-4.48a.76.76,0,0,1,1.5-.22l.65,4.48a.76.76,0,0,1-.64.86H1482A.75.75,0,0,1,1481.23,1759.3Zm-1.3-9-.65-4.48a.76.76,0,0,1,.65-.86.74.74,0,0,1,.86.64l.64,4.48a.76.76,0,0,1-.64.86h-.11A.77.77,0,0,1,1479.93,1750.34Zm-1.3-9-.64-4.48a.76.76,0,1,1,1.5-.21l.65,4.48a.76.76,0,0,1-.64.86h-.11A.77.77,0,0,1,1478.63,1741.37Zm-1.29-9-.65-4.48a.76.76,0,0,1,.64-.86.75.75,0,0,1,.86.64l.65,4.48a.76.76,0,0,1-.64.86h-.11A.75.75,0,0,1,1477.34,1732.41Zm-1.3-9-.65-4.48a.76.76,0,0,1,1.51-.22l.64,4.48a.75.75,0,0,1-.64.86h-.11A.76.76,0,0,1,1476,1723.45Zm-1.3-9-.64-4.48a.76.76,0,0,1,1.5-.22l.65,4.48a.76.76,0,0,1-.65.86h-.1A.76.76,0,0,1,1474.74,1714.49Zm-1.29-9-.65-4.49a.76.76,0,0,1,1.5-.21l.65,4.48a.76.76,0,0,1-.64.86h-.11A.75.75,0,0,1,1473.45,1705.53Zm-1.3-9-.65-4.49a.76.76,0,1,1,1.51-.21l.64,4.48a.76.76,0,0,1-.64.86h-.11A.77.77,0,0,1,1472.15,1696.57Zm-1.3-9-.64-4.48a.76.76,0,1,1,1.5-.22l.65,4.48a.77.77,0,0,1-.64.87h-.11A.76.76,0,0,1,1470.85,1687.6Zm-1.29-9-.65-4.48a.76.76,0,0,1,.64-.86.74.74,0,0,1,.86.64l.65,4.48a.76.76,0,0,1-.64.86h-.11A.75.75,0,0,1,1469.56,1678.64Z" transform="translate(-1249.6 -905.61)"/><path class="cls-29" d="M1525.74,2062.43h.11a.75.75,0,0,0,.64-.86l-.32-2.25a.77.77,0,0,0-.86-.65.76.76,0,0,0-.65.86l.33,2.26A.75.75,0,0,0,1525.74,2062.43Z" transform="translate(-1249.6 -905.61)"/><path class="cls-29" d="M1437.93,2053.75a.76.76,0,0,1,.76-.76h4.56a.76.76,0,1,1,0,1.52h-4.56A.76.76,0,0,1,1437.93,2053.75Zm9.12,0a.76.76,0,0,1,.76-.76h4.56a.76.76,0,0,1,0,1.52h-4.56A.76.76,0,0,1,1447.05,2053.75Zm9.12,0a.76.76,0,0,1,.76-.76h4.55a.76.76,0,1,1,0,1.52h-4.55A.76.76,0,0,1,1456.17,2053.75Zm9.11,0a.76.76,0,0,1,.76-.76h4.56a.76.76,0,1,1,0,1.52H1466A.76.76,0,0,1,1465.28,2053.75Zm9.12,0a.76.76,0,0,1,.76-.76h4.56a.76.76,0,1,1,0,1.52h-4.56A.76.76,0,0,1,1474.4,2053.75Zm9.12,0a.76.76,0,0,1,.76-.76h4.55a.76.76,0,1,1,0,1.52h-4.55A.76.76,0,0,1,1483.52,2053.75Zm9.11,0a.76.76,0,0,1,.76-.76H1498a.76.76,0,1,1,0,1.52h-4.56A.76.76,0,0,1,1492.63,2053.75Zm9.12,0a.76.76,0,0,1,.76-.76h4.56a.76.76,0,1,1,0,1.52h-4.56A.76.76,0,0,1,1501.75,2053.75Zm9.12,0a.76.76,0,0,1,.76-.76h4.55a.76.76,0,1,1,0,1.52h-4.55A.76.76,0,0,1,1510.87,2053.75Zm9.11,0a.76.76,0,0,1,.76-.76h4.56a.76.76,0,1,1,0,1.52h-4.56A.76.76,0,0,1,1520,2053.75Zm9.12,0a.76.76,0,0,1,.76-.76h4.56a.76.76,0,1,1,0,1.52h-4.56A.76.76,0,0,1,1529.1,2053.75Z" transform="translate(-1249.6 -905.61)"/><path class="cls-29" d="M1261.47,2062.43a.75.75,0,0,1-.73-.78l0-1.85a.79.79,0,0,1,.78-.74.78.78,0,0,1,.74.79l-.06,1.84a.76.76,0,0,1-.75.74Zm.19-6.4a.76.76,0,0,1-.74-.78l.13-4.56a.76.76,0,1,1,1.52,0l-.13,4.56a.76.76,0,0,1-.76.74Zm.26-9.12a.76.76,0,0,1-.74-.78l.13-4.55a.77.77,0,0,1,.78-.74.76.76,0,0,1,.74.78l-.13,4.56a.75.75,0,0,1-.76.73Zm.26-9.11a.76.76,0,0,1-.74-.78l.13-4.56a.75.75,0,0,1,.78-.73.76.76,0,0,1,.74.78l-.13,4.55a.76.76,0,0,1-.76.74Zm.26-9.11a.76.76,0,0,1-.74-.78l.13-4.56a.76.76,0,1,1,1.52,0l-.13,4.56a.76.76,0,0,1-.76.74Zm.26-9.11a.78.78,0,0,1-.74-.79l.13-4.55a.78.78,0,0,1,.78-.74.76.76,0,0,1,.74.78l-.13,4.56a.76.76,0,0,1-.76.74Zm.26-9.12a.76.76,0,0,1-.74-.78l.13-4.56a.76.76,0,0,1,1.52.05l-.13,4.56a.75.75,0,0,1-.76.73Zm.26-9.11a.76.76,0,0,1-.74-.78l.13-4.56a.76.76,0,1,1,1.52,0l-.13,4.55a.76.76,0,0,1-.76.74Zm.26-9.11a.77.77,0,0,1-.74-.79l.13-4.55a.76.76,0,0,1,1.52,0l-.13,4.56a.76.76,0,0,1-.76.74Zm.26-9.12a.76.76,0,0,1-.74-.78l.13-4.55a.79.79,0,0,1,.78-.74.76.76,0,0,1,.74.78l-.13,4.56a.75.75,0,0,1-.76.73Zm.26-9.11a.76.76,0,0,1-.74-.78l.13-4.56a.76.76,0,1,1,1.52,0l-.13,4.55a.76.76,0,0,1-.76.74Zm.26-9.11a.76.76,0,0,1-.74-.78l.13-4.56a.74.74,0,0,1,.78-.74.76.76,0,0,1,.74.78l-.13,4.56a.76.76,0,0,1-.76.74Zm.26-9.11a.78.78,0,0,1-.74-.79l.13-4.55a.76.76,0,0,1,1.52,0l-.13,4.56a.76.76,0,0,1-.76.74Zm.26-9.12a.76.76,0,0,1-.74-.78l.13-4.56a.79.79,0,0,1,.78-.73.76.76,0,0,1,.74.78l-.13,4.55a.76.76,0,0,1-.76.74Zm.26-9.11a.76.76,0,0,1-.74-.78l.13-4.56a.76.76,0,0,1,1.52,0l-.13,4.56a.76.76,0,0,1-.76.74Zm.26-9.11a.77.77,0,0,1-.74-.78l.13-4.56a.76.76,0,1,1,1.52,0l-.13,4.56a.76.76,0,0,1-.76.74Zm.26-9.12a.76.76,0,0,1-.74-.78l.13-4.55a.76.76,0,0,1,1.52,0l-.13,4.56a.75.75,0,0,1-.76.73Zm.26-9.11a.76.76,0,0,1-.74-.78l.13-4.56a.75.75,0,0,1,.78-.74.78.78,0,0,1,.74.79l-.13,4.55a.76.76,0,0,1-.76.74Zm.26-9.11a.77.77,0,0,1-.74-.78l.13-4.56a.78.78,0,0,1,.78-.74.76.76,0,0,1,.74.78l-.13,4.56a.76.76,0,0,1-.76.74Zm.26-9.12a.76.76,0,0,1-.74-.78l.13-4.55a.76.76,0,0,1,1.52,0l-.13,4.56a.75.75,0,0,1-.76.73Zm.26-9.11a.76.76,0,0,1-.74-.78l.13-4.56a.76.76,0,0,1,1.52,0l-.13,4.55a.76.76,0,0,1-.76.74Zm.26-9.11a.76.76,0,0,1-.74-.78l.13-4.56a.74.74,0,0,1,.78-.74.76.76,0,0,1,.74.78l-.13,4.56a.77.77,0,0,1-.76.74Zm.26-9.11a.78.78,0,0,1-.74-.79l.13-4.55a.76.76,0,0,1,1.52,0l-.13,4.56a.77.77,0,0,1-.76.74Zm.26-9.12a.76.76,0,0,1-.74-.78l.13-4.56a.76.76,0,0,1,1.52,0l-.13,4.55a.76.76,0,0,1-.76.74Zm.26-9.11a.76.76,0,0,1-.74-.78l.13-4.56a.76.76,0,0,1,.78-.74.77.77,0,0,1,.74.78l-.13,4.56a.77.77,0,0,1-.76.74Zm.25-9.11a.76.76,0,0,1-.73-.78l.13-4.56a.75.75,0,0,1,.78-.74.76.76,0,0,1,.74.78l-.13,4.56a.77.77,0,0,1-.76.74Zm.26-9.12a.75.75,0,0,1-.73-.78l.13-4.55a.77.77,0,0,1,.78-.74.76.76,0,0,1,.74.78l-.13,4.56a.76.76,0,0,1-.76.73Zm.26-9.11a.75.75,0,0,1-.73-.78l.13-4.56a.79.79,0,0,1,.78-.74.78.78,0,0,1,.74.79l-.13,4.55a.76.76,0,0,1-.76.74Zm.26-9.11a.75.75,0,0,1-.73-.78l.13-4.56a.76.76,0,0,1,1.52,0l-.13,4.56a.77.77,0,0,1-.76.74Zm.26-9.11a.77.77,0,0,1-.73-.79l.13-4.55a.77.77,0,0,1,.78-.74.76.76,0,0,1,.74.78l-.13,4.56a.77.77,0,0,1-.76.74Zm.26-9.12a.75.75,0,0,1-.73-.78l.13-4.56a.77.77,0,0,1,.78-.73.76.76,0,0,1,.74.78L1270,1791a.76.76,0,0,1-.76.74Zm.26-9.11a.75.75,0,0,1-.73-.78l.13-4.56a.76.76,0,1,1,1.52,0l-.13,4.56a.77.77,0,0,1-.76.74Zm.26-9.11a.76.76,0,0,1-.73-.78l.13-4.56a.77.77,0,0,1,.78-.74.76.76,0,0,1,.74.78l-.13,4.56a.77.77,0,0,1-.76.74Zm.26-9.12a.75.75,0,0,1-.73-.78l.13-4.55a.76.76,0,1,1,1.51,0l-.13,4.56a.74.74,0,0,1-.75.73Zm.26-9.11a.75.75,0,0,1-.73-.78l.13-4.56a.77.77,0,0,1,.78-.74.78.78,0,0,1,.74.79l-.14,4.55a.76.76,0,0,1-.75.74Zm.26-9.11a.75.75,0,0,1-.73-.78l.13-4.56a.77.77,0,0,1,.78-.74.75.75,0,0,1,.73.78l-.12,4.56a.77.77,0,0,1-.76.74Zm.26-9.12a.75.75,0,0,1-.73-.78l.13-4.55a.77.77,0,0,1,.78-.74.75.75,0,0,1,.73.78l-.13,4.56a.74.74,0,0,1-.75.73Zm.26-9.11a.76.76,0,0,1-.74-.78l.13-4.56a.76.76,0,0,1,.79-.73.75.75,0,0,1,.73.78l-.13,4.55a.75.75,0,0,1-.75.74Zm.26-9.11a.75.75,0,0,1-.73-.78l.13-4.56a.77.77,0,0,1,.78-.74.75.75,0,0,1,.73.78l-.13,4.56a.75.75,0,0,1-.75.74Zm.26-9.11a.76.76,0,0,1-.73-.79l.12-4.55a.79.79,0,0,1,.79-.74.75.75,0,0,1,.73.78l-.13,4.56a.75.75,0,0,1-.75.74Zm.26-9.12a.76.76,0,0,1-.74-.78l.13-4.56a.76.76,0,0,1,.79-.73.75.75,0,0,1,.73.78l-.13,4.55a.75.75,0,0,1-.75.74Zm.26-9.11a.76.76,0,0,1-.74-.78l.13-4.56a.78.78,0,0,1,.79-.74.76.76,0,0,1,.73.78l-.13,4.56a.76.76,0,0,1-.76.74Zm.26-9.11a.77.77,0,0,1-.74-.78l.13-4.56a.77.77,0,0,1,.79-.74.75.75,0,0,1,.73.78l-.13,4.56a.76.76,0,0,1-.75.74Zm.26-9.12a.76.76,0,0,1-.74-.78l.13-4.55a.8.8,0,0,1,.79-.74.75.75,0,0,1,.73.78l-.13,4.56a.75.75,0,0,1-.76.73Z" transform="translate(-1249.6 -905.61)"/><path class="cls-29" d="M1249.6,2053.75a.76.76,0,0,1,.76-.76h2.91a.76.76,0,1,1,0,1.52h-2.91A.76.76,0,0,1,1249.6,2053.75Zm7.47,0a.76.76,0,0,1,.76-.76h4.56a.76.76,0,1,1,0,1.52h-4.56A.76.76,0,0,1,1257.07,2053.75Zm9.12,0a.76.76,0,0,1,.76-.76h4.56a.76.76,0,1,1,0,1.52H1267A.76.76,0,0,1,1266.19,2053.75Zm9.12,0a.76.76,0,0,1,.76-.76h4.55a.76.76,0,0,1,0,1.52h-4.55A.76.76,0,0,1,1275.31,2053.75Zm9.11,0a.76.76,0,0,1,.76-.76h4.56a.76.76,0,1,1,0,1.52h-4.56A.76.76,0,0,1,1284.42,2053.75Zm9.12,0a.76.76,0,0,1,.76-.76h4.56a.76.76,0,1,1,0,1.52h-4.56A.76.76,0,0,1,1293.54,2053.75Zm9.12,0a.76.76,0,0,1,.76-.76H1308a.76.76,0,1,1,0,1.52h-4.55A.76.76,0,0,1,1302.66,2053.75Zm9.11,0a.76.76,0,0,1,.76-.76h4.56a.76.76,0,1,1,0,1.52h-4.56A.76.76,0,0,1,1311.77,2053.75Zm9.12,0a.76.76,0,0,1,.76-.76h4.56a.76.76,0,1,1,0,1.52h-4.56A.76.76,0,0,1,1320.89,2053.75Zm9.12,0a.76.76,0,0,1,.76-.76h4.55a.76.76,0,1,1,0,1.52h-4.55A.76.76,0,0,1,1330,2053.75Zm9.11,0a.76.76,0,0,1,.76-.76h4.56a.76.76,0,1,1,0,1.52h-4.56A.76.76,0,0,1,1339.12,2053.75Z" transform="translate(-1249.6 -905.61)"/><polygon class="cls-30" points="13.86 715.9 230.99 738.27 228.04 715.9 13.86 715.9"/><path class="cls-6" d="M1396,1359.69s74.09,10.62,110.16,52.45-12.46,41.07-25.84,39.55S1396,1359.69,1396,1359.69Z" transform="translate(-1249.6 -905.61)"/><polygon class="cls-4" points="77.24 408.19 83.78 460.62 131.3 453.33 131.66 451.98 133.34 445.44 135.11 438.62 135.13 438.55 141.55 413.83 77.24 408.19"/><path class="cls-4" d="M1323.19,1294.56c1.07,29.91,19.86,57.55,49.76,56.48s53-.93,58.53-60.37c2.75-29.79-26.19-53.27-56.09-52.2A54.18,54.18,0,0,0,1323.19,1294.56Z" transform="translate(-1249.6 -905.61)"/><path class="cls-7" d="M1379.34,1265.76a39.56,39.56,0,0,0-29.45-1.93,32.79,32.79,0,0,0-3.87,1.51c-5.71,2.79-4.87,18.71-4.87,18.71s-7.58-6-9.79,4.41,7.53,12,7.53,12l-6.39,27.09s-10.17-16.51-17.11-45.3c-6.74-27.93,16.17-72,43.46-63.49,0,0,22.68-19.28,50.06-10.91,29.93,9.14,50.58,28.14,63.13,13.69,0,0-8.49,71.1-66,53.61Z" transform="translate(-1249.6 -905.61)"/><path class="cls-3" d="M1379.65,1365l3.29-14s-34.49,2.82-46.85-18.11C1336.09,1332.93,1336.3,1361.4,1379.65,1365Z" transform="translate(-1249.6 -905.61)"/><path class="cls-31" d="M1259,1537.67l-3.77-67.38c-3-54-.17-110.6,86.65-110.53a2.05,2.05,0,0,1,.34-.07c5.75-.94,10-1.33,12-1.5l1.29-.09c111.93,0,108.91,41.6,112.2,100.28l3.54,63.13,11.28,92.94a11.11,11.11,0,0,1-11,12.45l-205.32.94a11.12,11.12,0,0,1-11.15-11.66Z" transform="translate(-1249.6 -905.61)"/><path class="cls-16" d="M1354.22,1358.19c-2,.17-6.25.56-12,1.5A102.71,102.71,0,0,1,1354.22,1358.19Z" transform="translate(-1249.6 -905.61)"/><path class="cls-3" d="M1443.21,1507.28h0c-2.89-2.81-10.14,1.43-7.33-1.45l18.16-20.19a7.36,7.36,0,0,1,10.36-.14h0a7.35,7.35,0,0,1,.14,10.36l-11,11.28A7.35,7.35,0,0,1,1443.21,1507.28Z" transform="translate(-1249.6 -905.61)"/><path class="cls-32" d="M1469.47,1541l-4.41-.14a9.82,9.82,0,0,1-9.47-10.13L1460,1398a9.8,9.8,0,0,1,10.13-9.47l4.27.15a9.77,9.77,0,0,0-10,9.46L1460,1530.88A9.83,9.83,0,0,0,1469.47,1541Z" transform="translate(-1249.6 -905.61)"/><path class="cls-33" d="M1556.62,1543.91l-4.27-.15-82.88-2.75a9.83,9.83,0,0,1-9.47-10.13l4.42-132.79a9.77,9.77,0,0,1,10-9.46.33.33,0,0,1,.14,0l82.74,2.76,4.41.14a9.79,9.79,0,0,1,9.47,10.12l-4.41,132.8A9.83,9.83,0,0,1,1556.62,1543.91Z" transform="translate(-1249.6 -905.61)"/><path class="cls-20" d="M1506.3,1464.54a9.44,9.44,0,1,0,11-7.56A9.44,9.44,0,0,0,1506.3,1464.54Z" transform="translate(-1249.6 -905.61)"/><path class="cls-20" d="M1554.57,1403.54a3.56,3.56,0,1,0,4.15-2.85A3.56,3.56,0,0,0,1554.57,1403.54Z" transform="translate(-1249.6 -905.61)"/><rect class="cls-4" x="1430.72" y="1499.61" width="51.29" height="42.37" rx="15.99" transform="translate(-1430.24 -709.2) rotate(-7.27)"/><rect class="cls-4" x="1462.87" y="1489.87" width="14.65" height="30.39" rx="5.53" transform="translate(1527.66 -1049.27) rotate(82.73)"/><rect class="cls-4" x="1473.88" y="1497.66" width="14.65" height="30.39" rx="5.53" transform="translate(1544.95 -1053.43) rotate(82.73)"/><rect class="cls-4" x="1471.31" y="1507.21" width="14.65" height="30.39" rx="5.53" transform="matrix(0.13, 0.99, -0.99, 0.13, 1552.23, -1042.49)"/><rect class="cls-4" x="1463.55" y="1517.4" width="14.65" height="30.39" rx="5.53" transform="translate(1555.51 -1025.93) rotate(82.73)"/><rect class="cls-3" x="1461.62" y="1506.3" width="23.84" height="1.52" transform="translate(-1493.56 -620.32) rotate(-10.22)"/><rect class="cls-3" x="1469.77" y="1519.34" width="23.34" height="1.52" transform="translate(-1495.75 -618.72) rotate(-10.22)"/><rect class="cls-3" x="1465.09" y="1530" width="20.06" height="1.52" transform="translate(-1497.74 -619.67) rotate(-10.22)"/><path class="cls-6" d="M1298.54,1373.44a42.61,42.61,0,0,0-41.68,46.5c1,10.51,1.92,19.77,2.65,23.69.48,2.87,1.13,5.79,1.7,8.68s1.21,5.78,1.94,8.72,1.37,5.83,2.16,8.76l2.5,8.86c.39,1.47.88,3,1.39,4.47l1.5,4.5,1.51,4.48,1.78,4.61,1.83,4.58c.31.76.59,1.51.93,2.29l1.1,2.37,2.21,4.73,1.11,2.35.57,1.18.94,1.77c1.36,2.43,2.71,4.89,4.27,7.16s3.27,4.45,5,6.56,3.65,3.89,5.53,5.75,3.87,3.32,5.85,4.9a85.59,85.59,0,0,0,23.65,12.4c1.89.6,3.84,1.33,5.66,1.77l5.52,1.41c3.58.75,7.18,1.42,10.61,1.82a140.66,140.66,0,0,0,20,1.19,206.57,206.57,0,0,0,36.58-3.76c5.84-1.17,11.58-2.43,17.25-4,2.83-.79,5.65-1.58,8.47-2.46l4.24-1.39,4.49-1.56-7.47-41.21c-.35-.08-1-.11-1.62-.16l-1.83-.12-3.73-.27c-2.5-.16-5-.36-7.51-.58-5-.45-10-.88-14.85-1.55a208.82,208.82,0,0,1-27.74-5.06,96,96,0,0,1-11.82-3.82c-.86-.37-1.81-.68-2.58-1.09s-1.59-.77-2.39-1.12l-2.1-1.18a21.51,21.51,0,0,1-1.83-1.18c-2.23-1.58-3.38-6.92-3.38-6.92l-.75-2.76-.38-1.37c-.12-.48-.22-1-.33-1.53l-.65-3.07-.71-3-.58-3.29c-.38-2.22-.83-4.29-1.16-6.61-.76-4.54-2.79-26.7-4.63-47.53a42.6,42.6,0,0,0-43.17-38.87Z" transform="translate(-1249.6 -905.61)"/><rect class="cls-4" x="1562.07" y="1477.72" width="14.65" height="30.39" rx="5.53" transform="translate(-1335.9 1983.89) rotate(-83.72)"/><rect class="cls-4" x="1560.52" y="1462.6" width="14.65" height="34.92" rx="5.53" transform="translate(-1324.5 1970.9) rotate(-83.72)"/><rect class="cls-4" x="1563.39" y="1453.83" width="14.65" height="30.39" rx="5.53" transform="translate(-1310.99 1963.92) rotate(-83.72)"/><rect class="cls-4" x="1563.54" y="1447.2" width="14.65" height="21.62" rx="5.53" transform="translate(-1299.91 1954.27) rotate(-83.72)"/><rect class="cls-3" x="1568.35" y="1474.79" width="1.52" height="24.33" transform="translate(-1258.27 2059.09) rotate(-86.58)"/><rect class="cls-3" x="1568.8" y="1459.95" width="1.52" height="26.21" transform="translate(-1303.54 1980.83) rotate(-84.23)"/><rect class="cls-3" x="1569.39" y="1452.64" width="1.52" height="18.44" transform="translate(-1263.79 2002.71) rotate(-85.35)"/></g></g></svg>